# xmcd
#
# Track frame offsets:
#	150
#	20935
#	40640
#	69386
#	93536
#	121446
#	149785
#	179424
#	199909
#	229202
#	255149
#	276820
#
# Disc length: 4063 seconds
#
# Revision: 2
# Processed by: cddbd v1.5.2PL0 Copyright (c) Steve Scherf et al.
# Submitted via: EZCDAudioConverter 2.3.2.1
#
DISCID=b20fdd0c
DTITLE=Walter TROUT - 'The Blues magazine 13-Walter TROUT-The best of Provogue
DTITLE=years'
DYEAR=2014
DGENRE=Blues
TTITLE0=How much do you want? (1995)
TTITLE1=Cherry red wine (2010)
TTITLE2=Recovery (2012)
TTITLE3=The bottom of the river (2014)
TTITLE4=Victor the cajun (1992)
TTITLE5=Goin' down (2009)
TTITLE6=Her other man (2010)
TTITLE7=They call us the working class (2009)
TTITLE8=Come home (1997)
TTITLE9=Life in the jungle (1990)
TTITLE10=Fast moving traffic (1992)
TTITLE11=The love song of J. Alfred Bluesrock (2008)
EXTD=
EXTT0=
EXTT1=
EXTT2=
EXTT3=
EXTT4=
EXTT5=
EXTT6=
EXTT7=
EXTT8=
EXTT9=
EXTT10=
EXTT11=
PLAYORDER=
